<mxfile host="app.diagrams.net" modified="2024-02-24T16:30:04.747Z" agent="Mozilla/5.0 (Windows NT 10.0; Win64; x64) AppleWebKit/537.36 (KHTML, like Gecko) Chrome/122.0.0.0 Safari/537.36" version="23.1.5" etag="2fuvs02BnlGdhvRvlG8U" type="github">
  <diagram name="Page-1" id="SKBY9zirFob0JWuUtOu5">
    <mxGraphModel>
      <root>
        <mxCell id="0" />
        <mxCell id="1" parent="0" />
      </root>
    </mxGraphModel>
  </diagram>
</mxfile>
